<svg xmlns="http://www.w3.org/2000/svg" xmlns:xlink="http://www.w3.org/1999/xlink" width="500" zoomAndPan="magnify" viewBox="0 0 375 374.999991" height="500" preserveAspectRatio="xMidYMid meet" version="1.0"><defs><g/><clipPath id="9f01511c06"><path d="M 143 137 L 251 137 L 251 227.234375 L 143 227.234375 Z M 143 137 " clip-rule="nonzero"/></clipPath><clipPath id="d7f974b82a"><path d="M 130 83.984375 L 208 83.984375 L 208 178 L 130 178 Z M 130 83.984375 " clip-rule="nonzero"/></clipPath></defs><g clip-path="url(#9f01511c06)"><path fill="#ffffff" d="M 181.015625 198.980469 C 186.132812 198.308594 191.007812 193.726562 191.097656 193.640625 C 191.089844 193.675781 191.261719 194.003906 195.867188 197.15625 C 201.394531 200.945312 206.417969 195.289062 206.417969 195.289062 C 213.945312 199.984375 219.117188 197.761719 219.117188 197.761719 C 214.535156 200.742188 208.019531 198.773438 208.019531 198.773438 C 198.042969 204.402344 191.296875 197.664062 191.296875 197.664062 C 187.109375 199.667969 181.015625 198.980469 181.015625 198.980469 Z M 143.71875 194.550781 C 146.90625 201.523438 151.476562 207.722656 157.082031 212.800781 C 173.179688 210.214844 179.394531 202.878906 179.394531 202.878906 C 179.394531 202.878906 184.058594 211 195.082031 210.925781 C 206.101562 210.847656 208.535156 202.878906 208.535156 202.878906 C 208.535156 202.878906 212.460938 208.027344 222.636719 210.527344 C 229.171875 212.132812 236.839844 208.0625 239.078125 204.964844 L 239.078125 204.960938 C 235.167969 203.996094 232.421875 202.972656 232.421875 202.972656 C 224.578125 207.699219 216.324219 204.261719 216.324219 204.261719 C 224.601562 205.753906 231.480469 195.410156 231.480469 195.410156 C 231.480469 195.410156 234.46875 199.222656 241.101562 202.09375 C 246.929688 193.257812 250.324219 182.671875 250.324219 171.289062 C 250.324219 158.71875 246.1875 147.117188 239.203125 137.777344 C 238.246094 138.457031 237.140625 139.363281 235.742188 140.875 C 224.3125 153.226562 207.980469 165.40625 195.238281 173.386719 C 177.804688 184.308594 159.515625 191.390625 143.71875 194.550781 Z M 158.28125 213.851562 C 168.03125 222.191406 180.675781 227.226562 194.5 227.226562 C 206.601562 227.226562 217.804688 223.367188 226.949219 216.8125 C 217.195312 217.046875 210.382812 211.488281 210.382812 211.488281 C 195.109375 222.464844 179.394531 211 179.394531 211 C 168.527344 214.039062 161.878906 214.210938 158.28125 213.851562 " fill-opacity="1" fill-rule="nonzero"/></g><path fill="#ffffff" d="M 195.238281 173.386719 C 207.980469 165.40625 224.3125 153.226562 235.742188 140.875 C 237.140625 139.363281 238.246094 138.457031 239.203125 137.777344 C 239.46875 138.136719 239.730469 138.496094 239.988281 138.859375 C 233.199219 149.339844 220.050781 167.265625 201.441406 182 C 184.933594 195.066406 167.933594 204.4375 153.480469 209.226562 C 149.5 204.910156 146.191406 199.960938 143.71875 194.550781 C 159.515625 191.390625 177.804688 184.308594 195.238281 173.386719 " fill-opacity="1" fill-rule="nonzero"/><path fill="#ffffff" d="M 233.679688 131.441406 C 227.734375 137.949219 216.65625 148.746094 201.097656 158.425781 C 187.835938 166.675781 174 172.882812 161.941406 176.191406 C 159.398438 176.886719 156.933594 177.453125 154.570312 177.886719 C 151.007812 178.535156 147.675781 178.875 144.648438 178.875 C 142.59375 178.875 140.746094 178.71875 139.125 178.414062 C 138.832031 176.082031 138.675781 173.703125 138.675781 171.289062 C 138.675781 150.960938 149.496094 133.167969 165.675781 123.371094 C 170.65625 120.355469 176.148438 118.097656 181.988281 116.757812 C 182.019531 116.75 182.046875 116.742188 182.078125 116.738281 C 183.597656 116.390625 185.140625 116.109375 186.703125 115.890625 C 186.917969 115.859375 187.136719 115.832031 187.355469 115.800781 C 188.898438 115.605469 190.460938 115.46875 192.042969 115.402344 C 192.144531 115.398438 192.246094 115.390625 192.347656 115.390625 C 193.0625 115.359375 193.78125 115.347656 194.5 115.347656 C 197.335938 115.347656 200.125 115.558594 202.847656 115.96875 C 214.777344 117.761719 225.476562 123.339844 233.679688 131.441406 " fill-opacity="1" fill-rule="nonzero"/><path fill="#000000" d="M 263.585938 108.1875 C 267.921875 101.53125 270.261719 95.621094 268.867188 94.667969 C 267.46875 93.710938 262.832031 98.054688 258.226562 104.523438 L 240.539062 104.660156 L 237.707031 108.820312 L 251.574219 114.902344 C 249.789062 117.855469 247.941406 121.015625 246.320312 123.925781 L 237.28125 123.449219 L 235.925781 125.441406 L 243.660156 128.917969 C 243.523438 129.191406 229.578125 147.773438 204.257812 163.53125 C 170.007812 184.839844 135.53125 191.285156 127.234375 177.90625 C 121.488281 168.632812 129.824219 152.28125 146.878906 136.015625 C 119.59375 157.199219 104.542969 180.964844 112.199219 193.3125 C 121.328125 208.035156 159.332031 201.054688 196.945312 177.496094 C 227.359375 158.445312 246.15625 130.769531 246.238281 130.679688 L 249.496094 135.207031 L 250.851562 133.214844 L 249.902344 126.375 C 252.019531 123.800781 254.28125 120.925781 256.371094 118.183594 L 259.460938 127.636719 L 262.292969 123.476562 L 263.585938 108.1875 " fill-opacity="1" fill-rule="nonzero"/><g clip-path="url(#d7f974b82a)"><path fill="#000000" d="M 193.820312 116.59375 C 195.601562 118.132812 197.769531 119.144531 200.078125 119.589844 C 202.523438 120.0625 204.808594 120.804688 207.324219 122 C 207.324219 122 205.800781 119.113281 202.847656 115.96875 C 198.441406 111.277344 190.855469 106.019531 180.414062 108.976562 C 180.566406 108.878906 180.71875 108.78125 180.875 108.683594 C 180.121094 108.382812 179.25 108.140625 178.261719 108.027344 C 178.261719 108.027344 178.78125 107.871094 179.636719 107.863281 C 181.253906 107.84375 182.847656 107.449219 184.261719 106.664062 L 184.308594 106.636719 C 183.457031 106.246094 182.988281 105.59375 181.785156 105.460938 C 181.785156 105.460938 182.480469 105.25 183.582031 105.300781 C 185.414062 105.386719 187.242188 105.046875 188.890625 104.25 C 188.984375 104.203125 189.078125 104.160156 189.171875 104.117188 C 188.246094 103.636719 187.0625 103.203125 185.648438 103.046875 C 185.648438 103.046875 186.625 102.722656 187.988281 102.726562 C 190.695312 102.742188 193.378906 102.183594 195.890625 101.167969 C 195.996094 101.125 196.097656 101.085938 196.191406 101.050781 C 193.984375 100.390625 191.023438 99.722656 189.59375 99.5625 C 189.59375 99.5625 196.636719 98.828125 201.835938 99.347656 C 201.835938 99.347656 184.285156 87.210938 174.375 109.339844 C 176.023438 103.816406 176.503906 94.195312 167.746094 88.210938 C 163.636719 85.40625 157.996094 83.980469 157.996094 83.980469 C 159.554688 85.519531 167.230469 94.605469 167.910156 95.996094 C 167.851562 95.953125 165.964844 94.550781 163.75 93.621094 C 163.785156 93.726562 163.816406 93.832031 163.851562 93.9375 C 164.449219 95.859375 168.078125 100.296875 168.496094 101.140625 C 168.496094 101.140625 166.96875 100.003906 165.039062 99.082031 C 165.492188 101.875 166.785156 104.867188 166.898438 107.386719 C 158.066406 90.160156 138.765625 95.511719 138.765625 95.511719 C 145.113281 96.191406 153.351562 98.828125 153.351562 98.828125 C 151.601562 98.660156 147.894531 98.71875 145.09375 98.960938 C 145.1875 99.019531 145.285156 99.085938 145.390625 99.15625 C 148.164062 101.003906 151.25 102.34375 154.507812 103.015625 C 156.128906 103.351562 157.203125 103.976562 157.203125 103.976562 C 155.472656 103.8125 153.949219 104.035156 152.726562 104.375 L 152.871094 104.484375 C 154.722656 105.898438 156.898438 106.8125 159.195312 107.203125 C 160.476562 107.421875 161.222656 107.828125 161.222656 107.828125 C 159.75 107.6875 159.03125 108.351562 157.910156 108.605469 C 157.960938 108.648438 158.011719 108.691406 158.058594 108.730469 C 158.460938 109.078125 158.882812 109.390625 159.328125 109.675781 C 136.242188 102.195312 130.230469 118.941406 130.230469 118.941406 C 135.421875 115.328125 143.265625 111.945312 143.417969 111.878906 C 141.988281 112.902344 139.226562 115.378906 137.265625 117.394531 C 137.285156 117.394531 137.304688 117.390625 137.320312 117.390625 C 140.804688 116.925781 144.160156 115.800781 147.269531 114.15625 C 148.605469 113.453125 149.699219 113.242188 149.699219 113.242188 C 148.28125 114.253906 147.277344 115.421875 146.574219 116.480469 C 146.605469 116.480469 146.636719 116.476562 146.664062 116.476562 C 149.027344 116.328125 151.304688 115.585938 153.332031 114.363281 C 154.398438 113.71875 155.199219 113.527344 155.25 113.519531 C 154.046875 114.378906 153.933594 115.351562 153.257812 116.277344 L 153.304688 116.277344 C 155.257812 116.265625 157.191406 115.785156 158.898438 114.835938 C 159.824219 114.324219 160.492188 114.167969 160.53125 114.15625 C 159.546875 114.863281 158.761719 115.644531 158.132812 116.414062 C 159.054688 116.460938 159.933594 116.519531 160.769531 116.585938 C 148.039062 119.726562 148.113281 134.519531 148.113281 134.519531 C 148.863281 132.9375 149.835938 131.566406 150.949219 130.375 C 151.496094 127.472656 152.660156 125.199219 152.660156 125.199219 C 152.40625 126.65625 152.957031 130.011719 152.964844 130.003906 C 154.796875 128.390625 155.582031 125.46875 156.527344 123.21875 C 156.769531 122.640625 156.941406 122.300781 156.941406 122.300781 C 156.691406 123.722656 156.574219 124.988281 156.546875 126.109375 C 156.558594 126.101562 156.574219 126.09375 156.589844 126.089844 C 159 124.738281 160.925781 122.660156 162.03125 120.125 C 162.21875 119.699219 161.953125 122.386719 161.941406 123.582031 C 165.210938 120.566406 167.226562 121.414062 167.226562 121.414062 C 166.738281 121.992188 166.21875 122.644531 165.675781 123.371094 C 159.773438 131.300781 151.179688 148.347656 154.570312 177.886719 C 156.933594 177.453125 159.398438 176.886719 161.941406 176.191406 C 159.171875 164.625 155.875 140.839844 169.359375 123.175781 C 169.363281 123.304688 169.855469 122.382812 170.285156 121.910156 C 170.367188 121.976562 169.417969 125.980469 169.355469 127.648438 L 169.355469 127.691406 C 170.148438 127.140625 170.972656 127.074219 171.726562 126.078125 C 171.71875 126.121094 171.539062 126.792969 170.96875 127.675781 C 169.886719 129.355469 169.207031 131.261719 169.019531 133.253906 C 169.015625 133.277344 169.015625 133.300781 169.011719 133.328125 C 169.921875 132.761719 170.929688 131.941406 171.8125 130.773438 C 171.804688 130.828125 171.59375 131.726562 170.980469 132.804688 C 169.519531 135.382812 168.492188 138.1875 168.011719 141.113281 C 168.011719 141.132812 168.007812 141.144531 168.003906 141.160156 C 169.753906 139.558594 171.90625 137.289062 172.800781 136.109375 C 172.738281 136.246094 169.695312 142.773438 166.523438 147.058594 C 166.523438 147.058594 180.714844 140.785156 176.046875 122.84375 C 176.722656 125.539062 178.296875 127.917969 180.511719 129.589844 C 180.527344 129.601562 180.546875 129.617188 180.5625 129.628906 C 180.808594 128.640625 180.90625 126.039062 180.949219 124.808594 C 180.949219 124.808594 183.808594 128.265625 184.960938 133.195312 L 184.996094 133.230469 C 185.226562 132.273438 185.527344 129.722656 185.570312 128.550781 C 185.570312 128.550781 187.679688 132.851562 191.148438 142.164062 C 191.148438 142.164062 195.417969 126.140625 183.132812 117.441406 C 184.761719 118.285156 186.582031 118.722656 188.429688 118.707031 L 188.480469 118.707031 C 188.207031 118.070312 186.714844 116.367188 186.488281 116.046875 C 186.488281 116.046875 191.90625 118.710938 194.121094 118.867188 L 194.183594 118.871094 C 193.851562 118.113281 192.296875 115.707031 192.195312 115.5625 C 192.195312 115.5625 193.265625 116.113281 193.820312 116.59375 " fill-opacity="1" fill-rule="nonzero"/></g><g fill="#ffffff" fill-opacity="1"><g transform="translate(126.514946, 260.182425)"><g><path d="M 6.328125 -8.671875 L 6.328125 -4.765625 L 16.453125 -4.765625 L 16.453125 0 L 1.015625 0 L 1.015625 -22.09375 L 16.453125 -22.09375 L 16.453125 -17.34375 L 6.328125 -17.34375 L 6.328125 -13.4375 L 14.921875 -13.4375 L 14.921875 -8.671875 Z M 6.328125 -8.671875 "/></g></g></g><g fill="#ffffff" fill-opacity="1"><g transform="translate(143.98894, 260.182425)"><g><path d="M 10.03125 0.03125 C 8.53125 0.03125 7.21875 -0.179688 6.09375 -0.609375 C 5.175781 -0.972656 4.242188 -1.570312 3.296875 -2.40625 C 2.210938 -3.40625 1.519531 -4.644531 1.21875 -6.125 C 1.101562 -6.59375 1.046875 -7.066406 1.046875 -7.546875 C 1.023438 -7.703125 1.023438 -7.863281 1.046875 -8.03125 L 1.046875 -8.265625 L 5.71875 -8.1875 L 5.71875 -8.234375 C 5.71875 -7.390625 5.894531 -6.695312 6.25 -6.15625 C 6.9375 -5.132812 8.195312 -4.625 10.03125 -4.625 C 12.976562 -4.625 14.453125 -5.316406 14.453125 -6.703125 C 14.453125 -8.035156 12.929688 -8.875 9.890625 -9.21875 C 8.148438 -9.414062 6.65625 -9.773438 5.40625 -10.296875 C 4.25 -10.773438 3.304688 -11.410156 2.578125 -12.203125 C 1.554688 -13.335938 1.046875 -14.65625 1.046875 -16.15625 C 1.046875 -17.082031 1.21875 -17.953125 1.5625 -18.765625 C 1.8125 -19.378906 2.148438 -19.9375 2.578125 -20.4375 C 4.171875 -22.226562 6.6875 -23.125 10.125 -23.125 C 12.1875 -23.125 13.9375 -22.710938 15.375 -21.890625 C 16.457031 -21.285156 17.335938 -20.472656 18.015625 -19.453125 C 18.515625 -18.679688 18.867188 -17.796875 19.078125 -16.796875 C 19.140625 -16.453125 19.179688 -16.113281 19.203125 -15.78125 C 19.234375 -15.664062 19.25 -15.550781 19.25 -15.4375 L 19.25 -15.234375 L 14.59375 -15.234375 L 14.59375 -15.203125 C 14.613281 -15.878906 14.441406 -16.457031 14.078125 -16.9375 C 13.347656 -17.957031 12.03125 -18.46875 10.125 -18.46875 C 8.96875 -18.46875 8.019531 -18.316406 7.28125 -18.015625 C 6.34375 -17.648438 5.875 -17.128906 5.875 -16.453125 C 5.875 -15.046875 7.382812 -14.175781 10.40625 -13.84375 C 13.800781 -13.457031 16.25 -12.398438 17.75 -10.671875 C 18.75 -9.492188 19.25 -8.171875 19.25 -6.703125 L 19.25 -6.390625 C 19.25 -6.253906 19.234375 -6.117188 19.203125 -5.984375 C 19.179688 -5.617188 19.140625 -5.28125 19.078125 -4.96875 C 18.847656 -4.0625 18.414062 -3.253906 17.78125 -2.546875 C 17.03125 -1.710938 16.019531 -1.066406 14.75 -0.609375 C 13.488281 -0.179688 11.914062 0.03125 10.03125 0.03125 Z M 10.03125 0.03125 "/></g></g></g><g fill="#ffffff" fill-opacity="1"><g transform="translate(164.250623, 260.182425)"><g><path d="M 19.75 -2.78125 C 17.601562 -1 15.144531 -0.109375 12.375 -0.109375 C 9.25 -0.109375 6.578125 -1.21875 4.359375 -3.4375 C 2.128906 -5.65625 1.015625 -8.328125 1.015625 -11.453125 C 1.015625 -14.609375 2.128906 -17.296875 4.359375 -19.515625 C 6.578125 -21.734375 9.25 -22.84375 12.375 -22.84375 C 15.164062 -22.84375 17.625 -21.9375 19.75 -20.125 L 16.359375 -16.765625 C 15.203125 -17.648438 13.875 -18.09375 12.375 -18.09375 C 10.5625 -18.09375 9.007812 -17.445312 7.71875 -16.15625 C 6.425781 -14.863281 5.78125 -13.296875 5.78125 -11.453125 C 5.78125 -9.640625 6.425781 -8.085938 7.71875 -6.796875 C 9.007812 -5.503906 10.5625 -4.859375 12.375 -4.859375 C 13.875 -4.859375 15.203125 -5.300781 16.359375 -6.1875 Z M 19.75 -2.78125 "/></g></g></g><g fill="#ffffff" fill-opacity="1"><g transform="translate(186.04213, 260.182425)"><g><path d="M 17.984375 0 L 16.390625 -3.09375 L 8.0625 -3.09375 L 6.453125 0 L 0.34375 0 L 12.234375 -22.09375 L 24.109375 0 Z M 14.25 -7.234375 L 12.234375 -11.125 L 10.203125 -7.234375 Z M 14.25 -7.234375 "/></g></g></g><g fill="#ffffff" fill-opacity="1"><g transform="translate(210.485323, 260.182425)"><g><path d="M 11.625 -22.09375 C 14.144531 -22.09375 16.140625 -21.269531 17.609375 -19.625 C 18.878906 -18.164062 19.515625 -16.472656 19.515625 -14.546875 C 19.515625 -12.671875 18.925781 -11.03125 17.75 -9.625 C 16.269531 -7.894531 14.207031 -7.03125 11.5625 -7.03125 L 6.328125 -7.03125 L 6.328125 0 L 1.015625 0 L 1.015625 -22.09375 Z M 14.109375 -12.6875 C 14.335938 -12.957031 14.507812 -13.273438 14.625 -13.640625 C 14.707031 -13.953125 14.75 -14.253906 14.75 -14.546875 C 14.75 -14.847656 14.695312 -15.164062 14.59375 -15.5 C 14.445312 -15.863281 14.265625 -16.179688 14.046875 -16.453125 C 13.523438 -17.046875 12.71875 -17.34375 11.625 -17.34375 L 6.328125 -17.34375 L 6.328125 -11.796875 L 11.5625 -11.796875 C 12.257812 -11.796875 12.847656 -11.898438 13.328125 -12.109375 C 13.640625 -12.285156 13.898438 -12.476562 14.109375 -12.6875 Z M 14.109375 -12.6875 "/></g></g></g><g fill="#ffffff" fill-opacity="1"><g transform="translate(231.018975, 260.182425)"><g><path d="M 6.328125 -8.671875 L 6.328125 -4.765625 L 16.453125 -4.765625 L 16.453125 0 L 1.015625 0 L 1.015625 -22.09375 L 16.453125 -22.09375 L 16.453125 -17.34375 L 6.328125 -17.34375 L 6.328125 -13.4375 L 14.921875 -13.4375 L 14.921875 -8.671875 Z M 6.328125 -8.671875 "/></g></g></g><g fill="#ffffff" fill-opacity="1"><g transform="translate(85.176094, 282.332413)"><g><path d="M 9.640625 0 L 8.296875 0 L 7.296875 -2.9375 L 2.734375 -2.9375 L 1.75 0 L 0.421875 0 L 4.15625 -10.703125 L 5.90625 -10.703125 Z M 4.921875 -9.40625 L 3.09375 -3.984375 L 6.9375 -3.984375 L 5.109375 -9.40625 Z M 4.921875 -9.40625 "/></g></g></g><g fill="#ffffff" fill-opacity="1"><g transform="translate(98.86957, 282.332413)"><g><path d="M 5.625 0.15625 C 4.726562 0.15625 3.9375 -0.046875 3.25 -0.453125 C 2.570312 -0.867188 2.035156 -1.488281 1.640625 -2.3125 C 1.253906 -3.132812 1.0625 -4.148438 1.0625 -5.359375 C 1.0625 -6.554688 1.269531 -7.566406 1.6875 -8.390625 C 2.101562 -9.210938 2.675781 -9.828125 3.40625 -10.234375 C 4.132812 -10.648438 4.976562 -10.859375 5.9375 -10.859375 C 6.96875 -10.859375 7.8125 -10.671875 8.46875 -10.296875 C 9.125 -9.929688 9.585938 -9.382812 9.859375 -8.65625 L 9.046875 -8.171875 L 8.859375 -8.171875 C 8.578125 -8.734375 8.203125 -9.132812 7.734375 -9.375 C 7.265625 -9.613281 6.664062 -9.734375 5.9375 -9.734375 C 3.59375 -9.734375 2.421875 -8.273438 2.421875 -5.359375 C 2.421875 -3.835938 2.710938 -2.726562 3.296875 -2.03125 C 3.890625 -1.332031 4.71875 -0.984375 5.78125 -0.984375 C 6.757812 -0.984375 7.488281 -1.203125 7.96875 -1.640625 C 8.457031 -2.085938 8.703125 -2.789062 8.703125 -3.75 L 8.703125 -4.6875 L 5.65625 -4.6875 L 5.65625 -5.703125 L 9.9375 -5.703125 L 9.9375 0 L 8.765625 0 L 8.765625 -1.4375 L 8.609375 -1.46875 C 8.328125 -0.914062 7.929688 -0.503906 7.421875 -0.234375 C 6.921875 0.0234375 6.320312 0.15625 5.625 0.15625 Z M 5.625 0.15625 "/></g></g></g><g fill="#ffffff" fill-opacity="1"><g transform="translate(113.632381, 282.332413)"><g><path d="M 2.875 -5.046875 L 2.875 -1.046875 L 8.328125 -1.046875 L 8.328125 0 L 1.625 0 L 1.625 -10.703125 L 8.21875 -10.703125 L 8.21875 -9.671875 L 2.875 -9.671875 L 2.875 -6.09375 L 7.59375 -6.09375 L 7.59375 -5.046875 Z M 2.875 -5.046875 "/></g></g></g><g fill="#ffffff" fill-opacity="1"><g transform="translate(126.307791, 282.332413)"><g><path d="M 2.84375 0 L 1.625 0 L 1.625 -10.703125 L 3.171875 -10.703125 L 8.390625 -2.53125 L 8.5625 -2.5625 L 8.5625 -10.703125 L 9.796875 -10.703125 L 9.796875 0 L 8.46875 0 L 3.03125 -8.75 L 2.84375 -8.71875 Z M 2.84375 0 "/></g></g></g><g fill="#ffffff" fill-opacity="1"><g transform="translate(141.356247, 282.332413)"><g><path d="M 5.921875 0.15625 C 4.984375 0.15625 4.144531 -0.0546875 3.40625 -0.484375 C 2.675781 -0.921875 2.101562 -1.550781 1.6875 -2.375 C 1.269531 -3.207031 1.0625 -4.203125 1.0625 -5.359375 C 1.0625 -6.515625 1.269531 -7.503906 1.6875 -8.328125 C 2.101562 -9.160156 2.675781 -9.789062 3.40625 -10.21875 C 4.144531 -10.644531 4.984375 -10.859375 5.921875 -10.859375 C 6.921875 -10.859375 7.75 -10.671875 8.40625 -10.296875 C 9.070312 -9.921875 9.550781 -9.347656 9.84375 -8.578125 L 9.046875 -8.046875 L 8.859375 -8.046875 C 8.566406 -8.660156 8.1875 -9.09375 7.71875 -9.34375 C 7.25 -9.601562 6.648438 -9.734375 5.921875 -9.734375 C 5.242188 -9.734375 4.644531 -9.582031 4.125 -9.28125 C 3.601562 -8.976562 3.1875 -8.5 2.875 -7.84375 C 2.570312 -7.195312 2.421875 -6.367188 2.421875 -5.359375 C 2.421875 -4.335938 2.570312 -3.5 2.875 -2.84375 C 3.1875 -2.195312 3.601562 -1.722656 4.125 -1.421875 C 4.644531 -1.128906 5.242188 -0.984375 5.921875 -0.984375 C 6.691406 -0.984375 7.320312 -1.15625 7.8125 -1.5 C 8.3125 -1.851562 8.679688 -2.421875 8.921875 -3.203125 L 9.109375 -3.203125 L 9.953125 -2.78125 C 9.691406 -1.832031 9.21875 -1.101562 8.53125 -0.59375 C 7.84375 -0.09375 6.972656 0.15625 5.921875 0.15625 Z M 5.921875 0.15625 "/></g></g></g><g fill="#ffffff" fill-opacity="1"><g transform="translate(155.489173, 282.332413)"><g><path d="M 2.875 -5.046875 L 2.875 -1.046875 L 8.328125 -1.046875 L 8.328125 0 L 1.625 0 L 1.625 -10.703125 L 8.21875 -10.703125 L 8.21875 -9.671875 L 2.875 -9.671875 L 2.875 -6.09375 L 7.59375 -6.09375 L 7.59375 -5.046875 Z M 2.875 -5.046875 "/></g></g></g><g fill="#ffffff" fill-opacity="1"><g transform="translate(168.16458, 282.332413)"><g/></g></g><g fill="#ffffff" fill-opacity="1"><g transform="translate(175.471334, 282.332413)"><g><path d="M 5.078125 -10.703125 C 6.160156 -10.703125 7.09375 -10.507812 7.875 -10.125 C 8.65625 -9.738281 9.253906 -9.144531 9.671875 -8.34375 C 10.097656 -7.550781 10.3125 -6.554688 10.3125 -5.359375 C 10.3125 -4.148438 10.097656 -3.148438 9.671875 -2.359375 C 9.253906 -1.566406 8.65625 -0.972656 7.875 -0.578125 C 7.09375 -0.191406 6.160156 0 5.078125 0 L 1.625 0 L 1.625 -10.703125 Z M 4.953125 -1.0625 C 5.847656 -1.0625 6.585938 -1.203125 7.171875 -1.484375 C 7.765625 -1.765625 8.210938 -2.21875 8.515625 -2.84375 C 8.816406 -3.476562 8.96875 -4.316406 8.96875 -5.359375 C 8.96875 -6.398438 8.816406 -7.234375 8.515625 -7.859375 C 8.210938 -8.484375 7.765625 -8.9375 7.171875 -9.21875 C 6.585938 -9.5 5.847656 -9.640625 4.953125 -9.640625 L 2.875 -9.640625 L 2.875 -1.0625 Z M 4.953125 -1.0625 "/></g></g></g><g fill="#ffffff" fill-opacity="1"><g transform="translate(190.483167, 282.332413)"><g><path d="M 2.875 -5.046875 L 2.875 -1.046875 L 8.328125 -1.046875 L 8.328125 0 L 1.625 0 L 1.625 -10.703125 L 8.21875 -10.703125 L 8.21875 -9.671875 L 2.875 -9.671875 L 2.875 -6.09375 L 7.59375 -6.09375 L 7.59375 -5.046875 Z M 2.875 -5.046875 "/></g></g></g><g fill="#ffffff" fill-opacity="1"><g transform="translate(203.158573, 282.332413)"><g/></g></g><g fill="#ffffff" fill-opacity="1"><g transform="translate(210.465328, 282.332413)"><g><path d="M 5.828125 0 L 4.171875 0 L 0.46875 -10.703125 L 1.796875 -10.703125 L 4.9375 -1.578125 L 5.125 -1.578125 L 8.234375 -10.703125 L 9.546875 -10.703125 Z M 5.828125 0 "/></g></g></g><g fill="#ffffff" fill-opacity="1"><g transform="translate(224.100207, 282.332413)"><g><path d="M 5.875 0.15625 C 4.945312 0.15625 4.117188 -0.0390625 3.390625 -0.4375 C 2.671875 -0.84375 2.101562 -1.457031 1.6875 -2.28125 C 1.269531 -3.101562 1.0625 -4.128906 1.0625 -5.359375 C 1.0625 -6.578125 1.269531 -7.597656 1.6875 -8.421875 C 2.101562 -9.242188 2.671875 -9.851562 3.390625 -10.25 C 4.117188 -10.65625 4.945312 -10.859375 5.875 -10.859375 C 6.800781 -10.859375 7.625 -10.65625 8.34375 -10.25 C 9.070312 -9.851562 9.640625 -9.242188 10.046875 -8.421875 C 10.460938 -7.597656 10.671875 -6.578125 10.671875 -5.359375 C 10.671875 -4.128906 10.460938 -3.101562 10.046875 -2.28125 C 9.640625 -1.457031 9.070312 -0.84375 8.34375 -0.4375 C 7.625 -0.0390625 6.800781 0.15625 5.875 0.15625 Z M 5.875 -1.015625 C 6.988281 -1.015625 7.84375 -1.359375 8.4375 -2.046875 C 9.03125 -2.742188 9.328125 -3.847656 9.328125 -5.359375 C 9.328125 -6.859375 9.03125 -7.957031 8.4375 -8.65625 C 7.84375 -9.351562 6.988281 -9.703125 5.875 -9.703125 C 3.570312 -9.703125 2.421875 -8.253906 2.421875 -5.359375 C 2.421875 -2.460938 3.570312 -1.015625 5.875 -1.015625 Z M 5.875 -1.015625 "/></g></g></g><g fill="#ffffff" fill-opacity="1"><g transform="translate(239.47825, 282.332413)"><g><path d="M 5.234375 0 L 3.984375 0 L 3.984375 -4.203125 L 0.28125 -10.703125 L 1.65625 -10.703125 L 4.546875 -5.6875 L 4.71875 -5.6875 L 7.59375 -10.703125 L 8.9375 -10.703125 L 5.234375 -4.203125 Z M 5.234375 0 "/></g></g></g><g fill="#ffffff" fill-opacity="1"><g transform="translate(252.31479, 282.332413)"><g><path d="M 9.640625 0 L 8.296875 0 L 7.296875 -2.9375 L 2.734375 -2.9375 L 1.75 0 L 0.421875 0 L 4.15625 -10.703125 L 5.90625 -10.703125 Z M 4.921875 -9.40625 L 3.09375 -3.984375 L 6.9375 -3.984375 L 5.109375 -9.40625 Z M 4.921875 -9.40625 "/></g></g></g><g fill="#ffffff" fill-opacity="1"><g transform="translate(266.008262, 282.332413)"><g><path d="M 5.625 0.15625 C 4.726562 0.15625 3.9375 -0.046875 3.25 -0.453125 C 2.570312 -0.867188 2.035156 -1.488281 1.640625 -2.3125 C 1.253906 -3.132812 1.0625 -4.148438 1.0625 -5.359375 C 1.0625 -6.554688 1.269531 -7.566406 1.6875 -8.390625 C 2.101562 -9.210938 2.675781 -9.828125 3.40625 -10.234375 C 4.132812 -10.648438 4.976562 -10.859375 5.9375 -10.859375 C 6.96875 -10.859375 7.8125 -10.671875 8.46875 -10.296875 C 9.125 -9.929688 9.585938 -9.382812 9.859375 -8.65625 L 9.046875 -8.171875 L 8.859375 -8.171875 C 8.578125 -8.734375 8.203125 -9.132812 7.734375 -9.375 C 7.265625 -9.613281 6.664062 -9.734375 5.9375 -9.734375 C 3.59375 -9.734375 2.421875 -8.273438 2.421875 -5.359375 C 2.421875 -3.835938 2.710938 -2.726562 3.296875 -2.03125 C 3.890625 -1.332031 4.71875 -0.984375 5.78125 -0.984375 C 6.757812 -0.984375 7.488281 -1.203125 7.96875 -1.640625 C 8.457031 -2.085938 8.703125 -2.789062 8.703125 -3.75 L 8.703125 -4.6875 L 5.65625 -4.6875 L 5.65625 -5.703125 L 9.9375 -5.703125 L 9.9375 0 L 8.765625 0 L 8.765625 -1.4375 L 8.609375 -1.46875 C 8.328125 -0.914062 7.929688 -0.503906 7.421875 -0.234375 C 6.921875 0.0234375 6.320312 0.15625 5.625 0.15625 Z M 5.625 0.15625 "/></g></g></g><g fill="#ffffff" fill-opacity="1"><g transform="translate(280.771083, 282.332413)"><g><path d="M 2.875 -5.046875 L 2.875 -1.046875 L 8.328125 -1.046875 L 8.328125 0 L 1.625 0 L 1.625 -10.703125 L 8.21875 -10.703125 L 8.21875 -9.671875 L 2.875 -9.671875 L 2.875 -6.09375 L 7.59375 -6.09375 L 7.59375 -5.046875 Z M 2.875 -5.046875 "/></g></g></g></svg>